<svg width="24" height="25" viewBox="0 0 24 25" fill="none" xmlns="http://www.w3.org/2000/svg">
<path d="M6 3.6582C5.20435 3.6582 4.44129 3.97427 3.87868 4.53688C3.31607 5.09949 3 5.86255 3 6.6582V8.1582C3 8.35712 3.07902 8.54788 3.21967 8.68853C3.36032 8.82919 3.55109 8.9082 3.75 8.9082C3.94891 8.9082 4.13968 8.82919 4.28033 8.68853C4.42098 8.54788 4.5 8.35712 4.5 8.1582V6.6582C4.5 6.26038 4.65804 5.87885 4.93934 5.59754C5.22064 5.31624 5.60218 5.1582 6 5.1582H7.5C7.69891 5.1582 7.88968 5.07919 8.03033 4.93853C8.17098 4.79788 8.25 4.60712 8.25 4.4082C8.25 4.20929 8.17098 4.01853 8.03033 3.87787C7.88968 3.73722 7.69891 3.6582 7.5 3.6582H6ZM16.5 3.6582C16.3011 3.6582 16.1103 3.73722 15.9697 3.87787C15.829 4.01853 15.75 4.20929 15.75 4.4082C15.75 4.60712 15.829 4.79788 15.9697 4.93853C16.1103 5.07919 16.3011 5.1582 16.5 5.1582H18C18.3978 5.1582 18.7794 5.31624 19.0607 5.59754C19.342 5.87885 19.5 6.26038 19.5 6.6582V8.1582C19.5 8.35712 19.579 8.54788 19.7197 8.68853C19.8603 8.82919 20.0511 8.9082 20.25 8.9082C20.4489 8.9082 20.6397 8.82919 20.7803 8.68853C20.921 8.54788 21 8.35712 21 8.1582V6.6582C21 5.86255 20.6839 5.09949 20.1213 4.53688C19.5587 3.97427 18.7956 3.6582 18 3.6582H16.5ZM12 8.9082C11.0054 8.9082 10.0516 9.30329 9.34835 10.0066C8.64509 10.7098 8.25 11.6636 8.25 12.6582C8.25 13.6528 8.64509 14.6066 9.34835 15.3099C10.0516 16.0131 11.0054 16.4082 12 16.4082C12.9946 16.4082 13.9484 16.0131 14.6517 15.3099C15.3549 14.6066 15.75 13.6528 15.75 12.6582C15.75 11.6636 15.3549 10.7098 14.6517 10.0066C13.9484 9.30329 12.9946 8.9082 12 8.9082ZM4.5 17.1582C4.5 16.9593 4.42098 16.7685 4.28033 16.6279C4.13968 16.4872 3.94891 16.4082 3.75 16.4082C3.55109 16.4082 3.36032 16.4872 3.21967 16.6279C3.07902 16.7685 3 16.9593 3 17.1582V18.6582C3 19.4539 3.31607 20.2169 3.87868 20.7795C4.44129 21.3421 5.20435 21.6582 6 21.6582H7.5C7.69891 21.6582 7.88968 21.5792 8.03033 21.4385C8.17098 21.2979 8.25 21.1071 8.25 20.9082C8.25 20.7093 8.17098 20.5185 8.03033 20.3779C7.88968 20.2372 7.69891 20.1582 7.5 20.1582H6C5.60218 20.1582 5.22064 20.0002 4.93934 19.7189C4.65804 19.4376 4.5 19.056 4.5 18.6582V17.1582ZM21 17.1582C21 16.9593 20.921 16.7685 20.7803 16.6279C20.6397 16.4872 20.4489 16.4082 20.25 16.4082C20.0511 16.4082 19.8603 16.4872 19.7197 16.6279C19.579 16.7685 19.5 16.9593 19.5 17.1582V18.6582C19.5 19.056 19.342 19.4376 19.0607 19.7189C18.7794 20.0002 18.3978 20.1582 18 20.1582H16.5C16.3011 20.1582 16.1103 20.2372 15.9697 20.3779C15.829 20.5185 15.75 20.7093 15.75 20.9082C15.75 21.1071 15.829 21.2979 15.9697 21.4385C16.1103 21.5792 16.3011 21.6582 16.5 21.6582H18C18.7956 21.6582 19.5587 21.3421 20.1213 20.7795C20.6839 20.2169 21 19.4539 21 18.6582V17.1582Z" fill="url(#paint0_radial_126_821)"/>
<defs>
<radialGradient id="paint0_radial_126_821" cx="0" cy="0" r="1" gradientUnits="userSpaceOnUse" gradientTransform="translate(12 12.6582) rotate(90) scale(9)">
<stop stop-color="#F58B32"/>
<stop offset="1" stop-color="#FF510F"/>
</radialGradient>
</defs>
</svg>
